<svg id="ek0SvuDwYUB1" xmlns="http://www.w3.org/2000/svg" xmlns:xlink="http://www.w3.org/1999/xlink" viewBox="0 0 24 24" shape-rendering="geometricPrecision" text-rendering="geometricPrecision"><style><![CDATA[#ek0SvuDwYUB2_tr {animation: ek0SvuDwYUB2_tr__tr 1200ms linear infinite normal forwards}@keyframes ek0SvuDwYUB2_tr__tr { 0% {transform: translate(5.740525px,10.58802px) rotate(0deg)} 16.666667% {transform: translate(5.740525px,10.58802px) rotate(-5deg)} 33.333333% {transform: translate(5.740525px,10.58802px) rotate(0deg)} 50% {transform: translate(5.740525px,10.58802px) rotate(-5deg)} 66.666667% {transform: translate(5.740525px,10.58802px) rotate(0deg)} 83.333333% {transform: translate(5.740525px,10.58802px) rotate(-5deg)} 100% {transform: translate(5.740525px,10.58802px) rotate(0deg)}} #ek0SvuDwYUB3_to {animation: ek0SvuDwYUB3_to__to 1200ms linear infinite normal forwards}@keyframes ek0SvuDwYUB3_to__to { 0% {transform: translate(14.25575px,9.718264px)} 16.666667% {transform: translate(14.647094px,9.326937px)} 33.333333% {transform: translate(14.23416px,9.73988px)} 50% {transform: translate(14.6411px,9.332953px)} 66.666667% {transform: translate(14.255773px,9.71829px)} 83.333333% {transform: translate(14.662715px,9.311364px)} 100% {transform: translate(14.234184px,9.739903px)}} #ek0SvuDwYUB4_to {animation: ek0SvuDwYUB4_to__to 1200ms linear infinite normal forwards}@keyframes ek0SvuDwYUB4_to__to { 0% {transform: translate(8.42059px,15.53585px)} 16.666667% {transform: translate(8.192292px,15.764152px)} 33.333333% {transform: translate(8.422292px,15.534152px)} 50% {transform: translate(8.182292px,15.774152px)} 66.666667% {transform: translate(8.422292px,15.534152px)} 83.333333% {transform: translate(8.182292px,15.774152px)} 100% {transform: translate(8.412292px,15.544152px)}} #ek0SvuDwYUB5_tr {animation: ek0SvuDwYUB5_tr__tr 1200ms linear infinite normal forwards}@keyframes ek0SvuDwYUB5_tr__tr { 0% {transform: translate(13.358908px,18.25025px) rotate(0deg)} 16.666667% {transform: translate(13.358908px,18.25025px) rotate(5deg)} 33.333333% {transform: translate(13.358908px,18.25025px) rotate(0deg)} 50% {transform: translate(13.358908px,18.25025px) rotate(5deg)} 66.666667% {transform: translate(13.358908px,18.25025px) rotate(0deg)} 83.333333% {transform: translate(13.358908px,18.25025px) rotate(5deg)} 100% {transform: translate(13.358908px,18.25025px) rotate(0deg)}} #ek0SvuDwYUB7_to {animation: ek0SvuDwYUB7_to__to 1200ms linear infinite normal forwards}@keyframes ek0SvuDwYUB7_to__to { 0% {transform: translate(5.387284px,18.510662px)} 16.666667% {transform: translate(4.797284px,19.100662px)} 33.333333% {transform: translate(5.387284px,18.510662px)} 50% {transform: translate(4.807284px,19.090662px)} 66.666667% {transform: translate(5.387284px,18.510662px)} 83.333333% {transform: translate(4.777284px,19.120662px)} 100% {transform: translate(5.387284px,18.510662px)}} #ek0SvuDwYUB8_to {animation: ek0SvuDwYUB8_to__to 1200ms linear infinite normal forwards}@keyframes ek0SvuDwYUB8_to__to { 0% {transform: translate(4.735991px,16.989679px)} 16.666667% {transform: translate(4.145991px,17.579679px)} 33.333333% {transform: translate(4.735991px,16.989679px)} 50% {transform: translate(4.155991px,17.569679px)} 66.666667% {transform: translate(4.735991px,16.989679px)} 83.333333% {transform: translate(4.125991px,17.599679px)} 100% {transform: translate(4.735991px,16.989679px)}} #ek0SvuDwYUB9_to {animation: ek0SvuDwYUB9_to__to 1200ms linear infinite normal forwards}@keyframes ek0SvuDwYUB9_to__to { 0% {transform: translate(6.816517px,19.203657px)} 16.666667% {transform: translate(6.226517px,19.793657px)} 33.333333% {transform: translate(6.816517px,19.203657px)} 50% {transform: translate(6.236517px,19.783657px)} 66.666667% {transform: translate(6.816517px,19.203657px)} 83.333333% {transform: translate(6.206517px,19.813657px)} 100% {transform: translate(6.816517px,19.203657px)}}]]></style><g id="ek0SvuDwYUB2_tr" transform="translate(5.740525,10.58802) rotate(0)"><path d="M7.018,11.5465c-1.2192-.257-2.55892.1004-4.1498,1.1132.78247-2.1713,2.20766-3.19701,3.32582-3.6801.83832-.36194,1.60126-.46326,2.08954-.46326.13094,0,.24169.00731.32929.01863L7.018,11.5465Z" transform="translate(-5.740525,-10.58802)"/></g><g id="ek0SvuDwYUB3_to" transform="translate(14.25575,9.718264)"><path d="M12.8405,16.0203l-.0177.0085c-.5431.2615-1.0605.5106-1.5357.7865L7.1364,12.6786c.22416-.3838.43138-.8006.64126-1.2312l1.269-2.39596c.2656-.41113.55985-.7971.90072-1.13691C14.1827,3.69332,19.1616,1.52381,20.8215,3.17666c.3674.36622.5536.90607.5536,1.60432c0,2.35779-2.1329,6.06782-5.3071,9.23162-.8841.881-2.0755,1.4538-3.2275,2.0077Z" transform="translate(-14.25575,-9.718264)"/></g><g id="ek0SvuDwYUB4_to" transform="translate(8.42059,15.53585)"><path d="M9.38648,17.1931l-2.6288-2.6202.69704-.6943l2.2711,2.2632.35768.3565-.69702.6948Z" transform="translate(-8.42059,-15.53585)"/></g><g id="ek0SvuDwYUB5_tr" transform="translate(13.358908,18.25025) rotate(0)"><path d="M14.9792,17.8041c-.4834,1.1197-1.5131,2.5464-3.6991,3.3286c1.0144-1.5842,1.373-2.9184,1.1157-4.1343l3.0231-1.5906c.0543.4108.0147,1.3435-.4397,2.3963Z" transform="translate(-13.358908,-18.27025)"/></g><path d="M15.3515,6.01656c-.3562.35431-.5524.82582-.5524,1.32751c0,.50203.1962.97353.5524,1.32785.3671.36528.8493.54809,1.3314.54809s.9644-.18281,1.3312-.54809c.3562-.35432.5521-.82582.5521-1.32785c0-.50169-.1959-.9732-.5521-1.32751-.7336-.7306-1.9284-.7306-2.6626,0Zm2.222,2.21223c-.4914.48888-1.29.48888-1.7814,0-.2371-.23622-.368-.55025-.368-.88472c0-.33416.1309-.64819.368-.88441.2457-.24444.5683-.36651.8908-.36651s.6449.12207.8906.36651c.2371.23622.3677.55025.3677.88441c0,.33447-.1306.6485-.3677.88472Z"/><g id="ek0SvuDwYUB7_to" transform="translate(5.387284,18.510662)"><path d="M7.14527,16.7335c-.12175-.1224-.3195-.1224-.44188-.0006L3.57991,19.846c-.1221.1217-.12269.3195-.00062.4419.06102.0613.14099.0918.22125.0918.07965,0,.15962-.0305.22065-.0912l3.12349-3.1131c.12206-.1218.12268-.3196.00059-.4419Z" transform="translate(-5.362284,-18.510662)"/></g><g id="ek0SvuDwYUB8_to" transform="translate(4.735991,16.989679)"><path d="M3.78884,18.2416c.07965,0,.15959-.0305.22066-.0912l2.05688-2.0502c.12206-.1218.12237-.3195.00059-.4419s-.3195-.1227-.44187-.0006L3.56818,17.7079c-.12206.1217-.12238.3195-.00059.4419.06103.0613.141.0918.22125.0918Z" transform="translate(-4.80591,-16.891679)"/></g><g id="ek0SvuDwYUB9_to" transform="translate(6.816517,19.203657)"><path d="M7.7818,17.8074L5.72492,19.8576c-.12207.1217-.12238.3195-.0006.4419.06104.0613.14097.0918.22126.0918.07962,0,.15959-.0305.22062-.0912l2.05692-2.0502c.12206-.1218.12238-.3195.00059-.4419s-.31953-.1227-.44191-.0006Z" transform="translate(-6.974017,-19.053657)"/></g></svg>