<svg width="24" height="24" viewBox="0 0 24 24" fill="none" xmlns="http://www.w3.org/2000/svg">
<path d="M19.3958 18.2169L16.0625 14.8795C15.9545 14.7689 15.8343 14.6709 15.7042 14.5875L14.8708 14.0118C16.5849 11.8883 16.6009 8.85915 14.9092 6.71771C13.2175 4.57626 10.2697 3.89403 7.81091 5.07493C5.35217 6.25582 4.0387 8.98467 4.64811 11.6459C5.25752 14.3072 7.62717 16.1906 10.3542 16.1811C11.6775 16.1815 12.9617 15.7313 13.9958 14.9046L14.6208 15.7389C14.695 15.8463 14.7786 15.9469 14.8708 16.0393L18.2042 19.3766C18.2824 19.4556 18.3889 19.5 18.5 19.5C18.6111 19.5 18.7176 19.4556 18.7958 19.3766L19.3792 18.7926C19.5374 18.6359 19.5447 18.3824 19.3958 18.2169ZM10.3542 14.5124C8.05298 14.5124 6.1875 12.6447 6.1875 10.3407C6.1875 8.03676 8.05298 6.16903 10.3542 6.16903C12.6554 6.16903 14.5208 8.03676 14.5208 10.3407C14.5208 11.4471 14.0818 12.5082 13.3004 13.2906C12.519 14.0729 11.4592 14.5124 10.3542 14.5124Z" fill="black"/>
</svg>
