<svg width="48" height="48" viewBox="0 0 48 48" fill="none" xmlns="http://www.w3.org/2000/svg">
<path d="M24 0C10.7456 0 0 10.7456 0 24C0 37.2544 10.7456 48 24 48C37.2544 48 48 37.2544 48 24C48 10.7456 37.2544 0 24 0ZM38.1501 18.4158C36.7854 21.4996 32.6115 31.267 29.8263 37.6335C29.8224 37.6364 29.0966 37.632 29.0946 37.631L24.7022 27.2851C22.9614 30.6994 21.0326 34.2487 19.3832 37.6261C19.3733 37.6433 18.5852 37.634 18.5842 37.6232C16.0627 31.7375 13.4483 25.8905 10.9136 20.0092C10.3268 18.5715 8.26828 16.2591 6.85946 16.2724C6.85946 16.1054 6.8516 15.7327 6.84964 15.5073L15.5324 15.5063L15.5255 16.2581C14.5061 16.3053 12.7442 16.9559 13.2009 18.0814C14.4246 20.7237 18.7576 30.9601 19.9287 33.5588C20.7458 31.9594 23.0277 27.6961 23.9676 25.894C23.231 24.3825 20.7969 18.7394 20.0672 17.3183C19.5167 16.3917 18.1354 16.2783 17.0718 16.2621C17.0718 16.0249 17.0841 15.8422 17.0797 15.5166L24.712 15.5402V16.2336C23.6789 16.2621 22.7007 16.6465 23.1441 17.6345C24.1709 19.7657 24.7705 21.283 25.7128 23.2541C26.0138 22.6766 27.5567 19.5113 28.2923 17.8408C28.7367 16.73 28.0728 16.3141 26.2141 16.264C26.2387 16.0813 26.2225 15.7145 26.2387 15.5397L32.8305 15.5461L32.8335 16.2341C31.6221 16.2812 30.3679 16.9264 29.7134 17.9282L26.5392 24.5112C26.8874 25.3818 29.9392 32.1617 30.2604 32.9135L36.8228 17.7661C36.3558 16.54 34.8664 16.266 34.284 16.2527C34.288 16.0573 34.2889 15.7592 34.2899 15.5103L41.1405 15.5299L41.1504 15.5643L41.1391 16.2488C39.636 16.2945 38.7064 17.0983 38.1501 18.4158Z" fill="black"/>
</svg>
