<svg width="24" height="24" viewBox="0 0 24 24" fill="none" xmlns="http://www.w3.org/2000/svg">
<path d="M20.6727 18.2137C19.7338 14.8123 18.7484 11.1049 17.74 7.15464C17.5755 6.5124 17.0284 6.07678 16.4099 6.07678H7.60144C6.98466 6.07678 6.43767 6.5125 6.27311 7.15514C5.26575 11.1013 4.28205 14.8091 3.34618 18.2008C9.10031 18.9747 14.9178 18.9793 20.6727 18.2137ZM9.06779 12.6823C9.06779 11.043 10.3967 9.71406 12.036 9.71406C13.6752 9.71406 15.0042 11.043 15.0042 12.6823C15.0042 14.3215 13.6752 15.6504 12.036 15.6504C10.3966 15.6504 9.06779 14.3215 9.06779 12.6823ZM20.8067 19.7004C20.7593 19.8504 20.6943 20.0016 20.6092 20.1478C20.3164 20.651 19.8565 21.0234 19.3784 21.1435C14.5539 22.285 9.45419 22.2854 4.63802 21.1453C4.15875 21.0262 3.69728 20.6559 3.40385 20.1517C3.31516 19.9993 3.24764 19.8421 3.20001 19.6864C6.14146 20.0795 9.09881 20.2764 12.0563 20.2764C14.9782 20.2764 17.9002 20.0842 20.8067 19.7004ZM16.1496 4.58527H7.79713V2.97773C7.79713 2.4561 8.28217 2 8.80389 2H15.2092C15.7309 2 16.1497 2.4561 16.1497 2.97773V4.58527H16.1496Z" fill="white"/>
</svg>
