<svg width="24" height="24" viewBox="0 0 24 24" fill="none" xmlns="http://www.w3.org/2000/svg">
<path d="M12 3.89999C4.14212 3.89999 2 10.5734 2 12.4212C2 13.0728 2.55715 13.6263 3.51984 14.0702C3.67379 13.8867 3.8606 13.7035 4.08664 13.5247C4.61906 13.1035 5.33164 12.7419 6.20469 12.4497C7.77862 11.9231 9.83677 11.6331 12 11.6331C14.1632 11.6331 16.2214 11.9231 17.7953 12.4497C18.6684 12.7418 19.381 13.1035 19.9134 13.5247C20.1394 13.7035 20.3262 13.8867 20.4802 14.0702C21.4429 13.6263 22 13.0728 22 12.4212C22.0001 10.5734 19.8404 3.89999 12 3.89999ZM12 10.5332C10.7695 10.5332 9.77199 8.70691 9.77199 7.1547C9.77199 5.60249 10.7695 5.52372 12 5.52372C13.2306 5.52372 14.2281 5.60249 14.2281 7.1547C14.2281 8.70691 13.2305 10.5332 12 10.5332Z" fill="white"/>
<path d="M12.0001 13.3806C7.90676 13.3806 4.58844 14.4909 4.58844 15.8605C4.58844 17.2301 7.90676 20.1126 12.0001 20.1126C16.0934 20.1126 19.4118 17.2301 19.4118 15.8605C19.4118 14.4909 16.0934 13.3806 12.0001 13.3806Z" fill="white"/>
</svg>
