<svg width="48" height="48" viewBox="0 0 48 48" fill="none" xmlns="http://www.w3.org/2000/svg">
<g clip-path="url(#clip0_105_37)">
<path d="M24 0C37.2548 0 48 10.7452 48 24C48 37.2548 37.2548 48 24 48C10.7452 48 0 37.2548 0 24C0 10.7452 10.7452 0 24 0ZM31.0523 34.7977H16.9477C18.5124 40.5907 21.232 44.4006 24 44.4006C26.768 44.4006 29.4876 40.5907 31.0523 34.7977ZM13.2216 34.799L6.68867 34.7987C8.98833 38.4775 12.4281 41.3705 16.5131 42.983C15.2599 41.0157 14.2257 38.553 13.465 35.7469L13.2216 34.799ZM41.3113 34.7987L34.7784 34.799C34.0015 37.9996 32.8794 40.7971 31.4843 42.9831C35.3165 41.4713 38.5792 38.8341 40.8669 35.4792L41.3113 34.7987ZM12.226 19.1992H4.16904L4.15762 19.2405C3.79268 20.7675 3.59944 22.3612 3.59944 24C3.59944 26.5344 4.06158 28.9608 4.9062 31.1996L12.5206 31.1988C12.1791 28.9213 11.9981 26.5019 11.9981 24C11.9981 22.3586 12.076 20.7528 12.226 19.1992ZM32.1514 19.1993H15.8486C15.6854 20.7357 15.5976 22.3428 15.5976 24C15.5976 26.5424 15.8043 28.9668 16.1729 31.1991H31.8272C32.1957 28.9668 32.4024 26.5424 32.4024 24C32.4024 22.3428 32.3146 20.7357 32.1514 19.1993ZM43.832 19.1972L35.774 19.1992C35.924 20.7528 36.0019 22.3586 36.0019 24C36.0019 26.5019 35.8209 28.9213 35.4794 31.1988L43.0938 31.1996C43.9384 28.9608 44.4006 26.5344 44.4006 24C44.4006 22.3457 44.2037 20.7374 43.832 19.1972ZM16.5157 5.01691L16.4607 5.03783C11.5479 6.99283 7.57411 10.8018 5.40324 15.6007L12.7176 15.6016C13.4695 11.3955 14.7818 7.73389 16.5157 5.01691ZM24 3.59944L23.7225 3.61216C20.6859 3.88993 17.7524 8.69391 16.3901 15.6006H31.6099C30.2514 8.71326 27.3305 3.91688 24.3031 3.6146L24 3.59944ZM31.4869 5.01705L31.7432 5.43481C33.3491 8.10432 34.5684 11.6075 35.2824 15.6016L42.5968 15.6007C40.5219 11.0141 36.8001 7.33173 32.1856 5.30807L31.4869 5.01705Z" fill="#212121"/>
</g>
<defs>
<clipPath id="clip0_105_37">
<rect width="48" height="48" fill="white"/>
</clipPath>
</defs>
</svg>
