<svg width="24" height="24" viewBox="0 0 24 24" fill="none" xmlns="http://www.w3.org/2000/svg">
<path d="M7.018 11.5465C5.7988 11.2895 4.45908 11.6469 2.8682 12.6597C3.65067 10.4884 5.07586 9.46269 6.19402 8.9796C7.03234 8.61766 7.79528 8.51634 8.28356 8.51634C8.4145 8.51634 8.52525 8.52365 8.61285 8.53497L7.018 11.5465Z" fill="white"/>
<path d="M12.8405 16.0203L12.8228 16.0288C12.2797 16.2903 11.7623 16.5394 11.2871 16.8153L7.1364 12.6786C7.36056 12.2948 7.56778 11.878 7.77766 11.4474L9.04666 9.05144C9.31226 8.64031 9.60651 8.25434 9.94738 7.91453C14.1827 3.69332 19.1616 1.52381 20.8215 3.17666C21.1889 3.54288 21.3751 4.08273 21.3751 4.78098C21.3751 7.13877 19.2422 10.8488 16.068 14.0126C15.1839 14.8936 13.9925 15.4664 12.8405 16.0203Z" fill="white"/>
<path d="M9.38648 17.1931L6.75768 14.5729L7.45472 13.8786L9.72582 16.1418L10.0835 16.4983L9.38648 17.1931Z" fill="white"/>
<path d="M14.9792 17.8041C14.4958 18.9238 13.4661 20.3505 11.2801 21.1327C12.2945 19.5485 12.6531 18.2143 12.3958 16.9984L15.4189 15.4078C15.4732 15.8186 15.4336 16.7513 14.9792 17.8041Z" fill="white"/>
<path d="M15.3515 6.01656C14.9953 6.37087 14.7991 6.84238 14.7991 7.34407C14.7991 7.8461 14.9953 8.3176 15.3515 8.67192C15.7186 9.0372 16.2008 9.22001 16.6829 9.22001C17.1651 9.22001 17.6473 9.0372 18.0141 8.67192C18.3703 8.3176 18.5662 7.8461 18.5662 7.34407C18.5662 6.84238 18.3703 6.37087 18.0141 6.01656C17.2805 5.28596 16.0857 5.28596 15.3515 6.01656ZM17.5735 8.22879C17.0821 8.71767 16.2835 8.71767 15.7921 8.22879C15.555 7.99257 15.4241 7.67854 15.4241 7.34407C15.4241 7.00991 15.555 6.69588 15.7921 6.45966C16.0378 6.21522 16.3604 6.09315 16.6829 6.09315C17.0055 6.09315 17.3278 6.21522 17.5735 6.45966C17.8106 6.69588 17.9412 7.00991 17.9412 7.34407C17.9412 7.67854 17.8106 7.99257 17.5735 8.22879Z" fill="white"/>
<path d="M7.14527 16.7335C7.02352 16.6111 6.82577 16.6111 6.70339 16.7329L3.57991 19.846C3.45781 19.9677 3.45722 20.1655 3.57929 20.2879C3.64031 20.3492 3.72028 20.3797 3.80054 20.3797C3.88019 20.3797 3.96016 20.3492 4.02119 20.2885L7.14468 17.1754C7.26674 17.0536 7.26736 16.8558 7.14527 16.7335Z" fill="white"/>
<path d="M3.78884 18.2416C3.86849 18.2416 3.94843 18.2111 4.0095 18.1504L6.06638 16.1002C6.18844 15.9784 6.18875 15.7807 6.06697 15.6583C5.94522 15.5359 5.74747 15.5356 5.6251 15.6577L3.56818 17.7079C3.44612 17.8296 3.4458 18.0274 3.56759 18.1498C3.62862 18.2111 3.70859 18.2416 3.78884 18.2416Z" fill="white"/>
<path d="M7.7818 17.8074L5.72492 19.8576C5.60285 19.9793 5.60254 20.1771 5.72432 20.2995C5.78536 20.3608 5.86529 20.3913 5.94558 20.3913C6.0252 20.3913 6.10517 20.3608 6.1662 20.3001L8.22312 18.2499C8.34518 18.1281 8.3455 17.9304 8.22371 17.808C8.10196 17.6856 7.90418 17.6853 7.7818 17.8074Z" fill="white"/>
</svg>
