<svg width="24" height="24" viewBox="0 0 24 24" fill="none" xmlns="http://www.w3.org/2000/svg">
<path d="M10.9418 8.13708C11.2821 8.01297 11.6382 7.95008 12.0004 7.95008C12.3626 7.95008 12.7187 8.01304 13.059 8.13715C13.6993 8.3707 15.9259 9.18295 16.5902 9.42521V5.79972C16.5902 5.23103 16.1292 4.76999 15.5605 4.76999H13.0301V3.02974C13.0301 2.46105 12.5691 2 12.0004 2C11.4317 2 10.9707 2.46105 10.9707 3.02974V4.76999H8.44026C7.87157 4.76999 7.41052 5.23103 7.41052 5.79972V9.42528C8.07347 9.18336 10.2925 8.37399 10.9418 8.13708Z" fill="white"/>
<path d="M18.3137 12.2461L15.3335 11.159L12.3532 10.0719C12.2392 10.0304 12.1198 10.0096 12.0003 10.0096C11.8808 10.0096 11.7613 10.0304 11.6473 10.0719L5.68682 12.2461C5.16221 12.4369 4.87958 13.0221 5.06905 13.5572L7.81501 21.3139C7.95904 21.7209 8.34828 22 8.78571 22C10.5257 22 14.7949 22 15.2148 22C15.6496 22 16.0404 21.7239 16.1855 21.3139L18.9315 13.5572C19.13 12.9965 18.8118 12.4272 18.3137 12.2461Z" fill="white"/>
</svg>
