<svg width="24" height="24" viewBox="0 0 24 24" fill="none" xmlns="http://www.w3.org/2000/svg">
<path d="M21.9364 18.8261L15.8655 12.7553C15.8248 12.7145 15.7695 12.6917 15.7119 12.6917C15.6543 12.6917 15.599 12.7145 15.5583 12.7553L14.3145 13.9991L13.8552 13.5398L15.7139 11.6811L16.1545 12.1218C16.1957 12.1629 16.2511 12.1854 16.3081 12.1854C16.3223 12.1854 16.3365 12.184 16.3506 12.1812C16.4218 12.167 16.4812 12.1181 16.509 12.0511L17.1017 10.6161C17.1352 10.5349 17.1165 10.4416 17.0545 10.3795L15.4911 8.81618L16.2592 8.04815C16.3441 7.9633 16.3441 7.82572 16.2592 7.74088C16.1743 7.65604 16.0367 7.65604 15.952 7.74088L15.1839 8.50897L13.6205 6.94552C13.5585 6.88344 13.4652 6.86492 13.384 6.89832L11.949 7.49102C11.8819 7.51872 11.8331 7.57815 11.8188 7.64935C11.8047 7.72056 11.8269 7.79416 11.8783 7.84549L12.319 8.28622L10.4603 10.1449L10.001 9.68557L11.2448 8.44172C11.3297 8.35683 11.3297 8.2193 11.2448 8.13446L5.17396 2.0636C5.13317 2.02287 5.07793 2 5.0203 2C4.96267 2 4.90743 2.02287 4.86664 2.0636L2.06363 4.86672C1.97879 4.95161 1.97879 5.08914 2.06363 5.17399L8.13448 11.2448C8.17691 11.2873 8.23253 11.3084 8.28815 11.3084C8.34371 11.3084 8.39933 11.2872 8.44181 11.2448L9.69375 9.9929L10.1531 10.4522L7.67985 12.9254C7.59501 13.0103 7.59501 13.1478 7.67985 13.2327L8.12525 13.6781L7.08069 14.7226C6.99585 14.8075 6.99585 14.945 7.08069 15.0299L8.97014 16.9193C9.01257 16.9618 9.06819 16.9829 9.12381 16.9829C9.17943 16.9829 9.23499 16.9617 9.27747 16.9193L10.322 15.8748L10.7675 16.3202C10.8099 16.3627 10.8655 16.3838 10.9211 16.3838C10.9768 16.3838 11.0323 16.3626 11.0748 16.3202L13.548 13.847L14.0073 14.3063L12.7554 15.5583C12.6705 15.6432 12.6705 15.7807 12.7554 15.8655L18.8262 21.9364C18.8669 21.9771 18.9222 22 18.9798 22C19.0374 22 19.0927 21.9771 19.1334 21.9364L21.9364 19.1333C22.0212 19.0485 22.0212 18.911 21.9364 18.8261ZM15.4067 11.3738L15.0688 11.7117L12.2883 8.93133L12.6262 8.59343L15.4067 11.3738ZM10.9211 15.8594L8.14068 13.079L8.52469 12.695L11.3051 15.4754L10.9211 15.8594Z" fill="white"/>
</svg>
